<?xml version="1.0" standalone="no"?>
<svg xmlns:xlink="http://www.w3.org/1999/xlink" id="wave" style="transform:rotate(0deg); transition: 0.3s" viewBox="0 0 1440 490" version="1.1" xmlns="http://www.w3.org/2000/svg"><defs><linearGradient id="sw-gradient-0" x1="0" x2="0" y1="1" y2="0"><stop stop-color="rgba(81, 159, 159, 1)" offset="0%"/><stop stop-color="rgba(155, 217, 216, 1)" offset="100%"/></linearGradient></defs><path style="transform:translate(0, 0px); opacity:1" fill="url(#sw-gradient-0)" d="M0,98L48,89.8C96,82,192,65,288,106.2C384,147,480,245,576,277.7C672,310,768,278,864,285.8C960,294,1056,343,1152,359.3C1248,376,1344,359,1440,294C1536,229,1632,114,1728,106.2C1824,98,1920,196,2016,269.5C2112,343,2208,392,2304,400.2C2400,408,2496,376,2592,326.7C2688,278,2784,212,2880,212.3C2976,212,3072,278,3168,277.7C3264,278,3360,212,3456,220.5C3552,229,3648,310,3744,343C3840,376,3936,359,4032,294C4128,229,4224,114,4320,81.7C4416,49,4512,98,4608,130.7C4704,163,4800,180,4896,187.8C4992,196,5088,196,5184,187.8C5280,180,5376,163,5472,147C5568,131,5664,114,5760,122.5C5856,131,5952,163,6048,212.3C6144,261,6240,327,6336,343C6432,359,6528,327,6624,269.5C6720,212,6816,131,6864,89.8L6912,49L6912,490L6864,490C6816,490,6720,490,6624,490C6528,490,6432,490,6336,490C6240,490,6144,490,6048,490C5952,490,5856,490,5760,490C5664,490,5568,490,5472,490C5376,490,5280,490,5184,490C5088,490,4992,490,4896,490C4800,490,4704,490,4608,490C4512,490,4416,490,4320,490C4224,490,4128,490,4032,490C3936,490,3840,490,3744,490C3648,490,3552,490,3456,490C3360,490,3264,490,3168,490C3072,490,2976,490,2880,490C2784,490,2688,490,2592,490C2496,490,2400,490,2304,490C2208,490,2112,490,2016,490C1920,490,1824,490,1728,490C1632,490,1536,490,1440,490C1344,490,1248,490,1152,490C1056,490,960,490,864,490C768,490,672,490,576,490C480,490,384,490,288,490C192,490,96,490,48,490L0,490Z"/></svg>